<mxfile host="Electron" modified="2023-10-14T09:44:15.567Z" agent="Mozilla/5.0 (Windows NT 10.0; Win64; x64) AppleWebKit/537.36 (KHTML, like Gecko) draw.io/22.0.2 Chrome/114.0.5735.289 Electron/25.8.4 Safari/537.36" etag="haYaElqhnwXiHTrEDRLU" version="22.0.2" type="device">
  <diagram name="Page-1" id="t0JWVVVuZQBNfyrmfG_7">
    <mxGraphModel dx="1434" dy="836" grid="1" gridSize="10" guides="1" tooltips="1" connect="1" arrows="1" fold="1" page="1" pageScale="1" pageWidth="850" pageHeight="1100" background="none" math="0" shadow="0">
      <root>
        <mxCell id="0" />
        <mxCell id="1" parent="0" />
        <mxCell id="dFa-I7WnF22JkXFdIoCu-13" style="edgeStyle=orthogonalEdgeStyle;orthogonalLoop=1;jettySize=auto;html=1;exitX=0.5;exitY=0.5;exitDx=0;exitDy=0;exitPerimeter=0;strokeColor=#DDA15E;fontColor=#FEFAE0;fillColor=#BC6C25;endArrow=none;endFill=0;curved=1;" edge="1" parent="1" source="dFa-I7WnF22JkXFdIoCu-1" target="dFa-I7WnF22JkXFdIoCu-3">
          <mxGeometry relative="1" as="geometry" />
        </mxCell>
        <mxCell id="dFa-I7WnF22JkXFdIoCu-1" value="User" style="shape=umlActor;verticalLabelPosition=bottom;verticalAlign=top;html=1;outlineConnect=0;labelBackgroundColor=none;fillColor=#BC6C25;strokeColor=#DDA15E;fontColor=#FEFAE0;rounded=1;" vertex="1" parent="1">
          <mxGeometry x="80" y="319" width="30" height="60" as="geometry" />
        </mxCell>
        <mxCell id="dFa-I7WnF22JkXFdIoCu-3" value="Registred Products" style="shape=umlBoundary;whiteSpace=wrap;html=1;strokeColor=#DDA15E;fontColor=#FEFAE0;fillColor=#BC6C25;rounded=1;" vertex="1" parent="1">
          <mxGeometry x="170" y="410" width="100" height="80" as="geometry" />
        </mxCell>
        <mxCell id="dFa-I7WnF22JkXFdIoCu-21" style="edgeStyle=orthogonalEdgeStyle;orthogonalLoop=1;jettySize=auto;html=1;strokeColor=#DDA15E;fontColor=#FEFAE0;fillColor=#BC6C25;endArrow=none;endFill=0;curved=1;" edge="1" parent="1" source="dFa-I7WnF22JkXFdIoCu-5" target="dFa-I7WnF22JkXFdIoCu-17">
          <mxGeometry relative="1" as="geometry" />
        </mxCell>
        <mxCell id="dFa-I7WnF22JkXFdIoCu-44" style="edgeStyle=orthogonalEdgeStyle;orthogonalLoop=1;jettySize=auto;html=1;strokeColor=#DDA15E;fontColor=#FEFAE0;fillColor=#BC6C25;endArrow=none;endFill=0;curved=1;" edge="1" parent="1" source="dFa-I7WnF22JkXFdIoCu-5" target="dFa-I7WnF22JkXFdIoCu-41">
          <mxGeometry relative="1" as="geometry" />
        </mxCell>
        <mxCell id="dFa-I7WnF22JkXFdIoCu-5" value="Product Controlelr" style="ellipse;shape=umlControl;whiteSpace=wrap;html=1;strokeColor=#DDA15E;fontColor=#FEFAE0;fillColor=#BC6C25;rounded=1;" vertex="1" parent="1">
          <mxGeometry x="350" y="390" width="85" height="90" as="geometry" />
        </mxCell>
        <mxCell id="dFa-I7WnF22JkXFdIoCu-6" value="Order" style="ellipse;shape=umlEntity;whiteSpace=wrap;html=1;strokeColor=#DDA15E;fontColor=#FEFAE0;fillColor=#BC6C25;rounded=1;" vertex="1" parent="1">
          <mxGeometry x="520" y="540" width="90" height="90" as="geometry" />
        </mxCell>
        <mxCell id="dFa-I7WnF22JkXFdIoCu-7" value="User" style="ellipse;shape=umlEntity;whiteSpace=wrap;html=1;strokeColor=#DDA15E;fontColor=#FEFAE0;fillColor=#BC6C25;rounded=1;" vertex="1" parent="1">
          <mxGeometry x="520" y="805" width="90" height="90" as="geometry" />
        </mxCell>
        <mxCell id="dFa-I7WnF22JkXFdIoCu-38" style="edgeStyle=orthogonalEdgeStyle;orthogonalLoop=1;jettySize=auto;html=1;strokeColor=#DDA15E;fontColor=#FEFAE0;fillColor=#BC6C25;curved=1;endArrow=none;endFill=0;" edge="1" parent="1" source="dFa-I7WnF22JkXFdIoCu-8" target="dFa-I7WnF22JkXFdIoCu-16">
          <mxGeometry relative="1" as="geometry" />
        </mxCell>
        <mxCell id="dFa-I7WnF22JkXFdIoCu-8" value="Registred Users" style="shape=umlBoundary;whiteSpace=wrap;html=1;strokeColor=#DDA15E;fontColor=#FEFAE0;fillColor=#BC6C25;rounded=1;" vertex="1" parent="1">
          <mxGeometry x="170" y="810" width="100" height="80" as="geometry" />
        </mxCell>
        <mxCell id="dFa-I7WnF22JkXFdIoCu-14" style="edgeStyle=orthogonalEdgeStyle;rounded=1;orthogonalLoop=1;jettySize=auto;html=1;exitX=0.5;exitY=0.5;exitDx=0;exitDy=0;exitPerimeter=0;strokeColor=#DDA15E;fontColor=#FEFAE0;fillColor=#BC6C25;endArrow=block;endFill=1;strokeWidth=1;endSize=20;" edge="1" parent="1" source="dFa-I7WnF22JkXFdIoCu-10">
          <mxGeometry relative="1" as="geometry">
            <mxPoint x="95" y="399" as="targetPoint" />
          </mxGeometry>
        </mxCell>
        <mxCell id="dFa-I7WnF22JkXFdIoCu-15" style="edgeStyle=orthogonalEdgeStyle;orthogonalLoop=1;jettySize=auto;html=1;exitX=0.5;exitY=0.5;exitDx=0;exitDy=0;exitPerimeter=0;strokeColor=#DDA15E;fontColor=#FEFAE0;fillColor=#BC6C25;endArrow=none;endFill=0;curved=1;" edge="1" parent="1" source="dFa-I7WnF22JkXFdIoCu-10" target="dFa-I7WnF22JkXFdIoCu-8">
          <mxGeometry relative="1" as="geometry">
            <Array as="points">
              <mxPoint x="50" y="639" />
              <mxPoint x="50" y="849" />
            </Array>
          </mxGeometry>
        </mxCell>
        <mxCell id="dFa-I7WnF22JkXFdIoCu-10" value="Admin" style="shape=umlActor;verticalLabelPosition=bottom;verticalAlign=top;html=1;outlineConnect=0;labelBackgroundColor=none;fillColor=#BC6C25;strokeColor=#DDA15E;fontColor=#FEFAE0;rounded=1;" vertex="1" parent="1">
          <mxGeometry x="80" y="609" width="30" height="60" as="geometry" />
        </mxCell>
        <mxCell id="dFa-I7WnF22JkXFdIoCu-39" style="edgeStyle=orthogonalEdgeStyle;rounded=1;orthogonalLoop=1;jettySize=auto;html=1;strokeColor=#DDA15E;fontColor=#FEFAE0;fillColor=#BC6C25;endArrow=none;endFill=0;" edge="1" parent="1" source="dFa-I7WnF22JkXFdIoCu-16" target="dFa-I7WnF22JkXFdIoCu-7">
          <mxGeometry relative="1" as="geometry" />
        </mxCell>
        <mxCell id="dFa-I7WnF22JkXFdIoCu-16" value="Users Controller" style="ellipse;shape=umlControl;whiteSpace=wrap;html=1;strokeColor=#DDA15E;fontColor=#FEFAE0;fillColor=#BC6C25;rounded=1;" vertex="1" parent="1">
          <mxGeometry x="350" y="805" width="85" height="90" as="geometry" />
        </mxCell>
        <mxCell id="dFa-I7WnF22JkXFdIoCu-17" value="Product" style="ellipse;shape=umlEntity;whiteSpace=wrap;html=1;strokeColor=#DDA15E;fontColor=#FEFAE0;fillColor=#BC6C25;rounded=1;" vertex="1" parent="1">
          <mxGeometry x="520" y="430" width="90" height="90" as="geometry" />
        </mxCell>
        <mxCell id="dFa-I7WnF22JkXFdIoCu-22" style="edgeStyle=orthogonalEdgeStyle;orthogonalLoop=1;jettySize=auto;html=1;entryX=0;entryY=0.5;entryDx=0;entryDy=0;strokeColor=#DDA15E;fontColor=#FEFAE0;fillColor=#BC6C25;endArrow=none;endFill=0;curved=1;" edge="1" parent="1" source="dFa-I7WnF22JkXFdIoCu-18" target="dFa-I7WnF22JkXFdIoCu-17">
          <mxGeometry relative="1" as="geometry" />
        </mxCell>
        <mxCell id="dFa-I7WnF22JkXFdIoCu-23" style="edgeStyle=orthogonalEdgeStyle;orthogonalLoop=1;jettySize=auto;html=1;strokeColor=#DDA15E;fontColor=#FEFAE0;fillColor=#BC6C25;endArrow=none;endFill=0;curved=1;" edge="1" parent="1" source="dFa-I7WnF22JkXFdIoCu-18" target="dFa-I7WnF22JkXFdIoCu-6">
          <mxGeometry relative="1" as="geometry" />
        </mxCell>
        <mxCell id="dFa-I7WnF22JkXFdIoCu-18" value="Order Controller" style="ellipse;shape=umlControl;whiteSpace=wrap;html=1;strokeColor=#DDA15E;fontColor=#FEFAE0;fillColor=#BC6C25;rounded=1;" vertex="1" parent="1">
          <mxGeometry x="350" y="540" width="85" height="90" as="geometry" />
        </mxCell>
        <mxCell id="dFa-I7WnF22JkXFdIoCu-19" style="edgeStyle=orthogonalEdgeStyle;orthogonalLoop=1;jettySize=auto;html=1;entryX=-0.012;entryY=0.589;entryDx=0;entryDy=0;entryPerimeter=0;strokeColor=#DDA15E;fontColor=#FEFAE0;fillColor=#BC6C25;endArrow=none;endFill=0;curved=1;" edge="1" parent="1" source="dFa-I7WnF22JkXFdIoCu-3" target="dFa-I7WnF22JkXFdIoCu-5">
          <mxGeometry relative="1" as="geometry" />
        </mxCell>
        <mxCell id="dFa-I7WnF22JkXFdIoCu-20" style="edgeStyle=orthogonalEdgeStyle;orthogonalLoop=1;jettySize=auto;html=1;entryX=-0.024;entryY=0.6;entryDx=0;entryDy=0;entryPerimeter=0;strokeColor=#DDA15E;fontColor=#FEFAE0;fillColor=#BC6C25;endArrow=none;endFill=0;curved=1;" edge="1" parent="1" source="dFa-I7WnF22JkXFdIoCu-35" target="dFa-I7WnF22JkXFdIoCu-18">
          <mxGeometry relative="1" as="geometry" />
        </mxCell>
        <mxCell id="dFa-I7WnF22JkXFdIoCu-29" style="edgeStyle=orthogonalEdgeStyle;rounded=1;orthogonalLoop=1;jettySize=auto;html=1;strokeColor=#DDA15E;fontColor=#FEFAE0;fillColor=#BC6C25;endArrow=none;endFill=0;" edge="1" parent="1" source="dFa-I7WnF22JkXFdIoCu-27" target="dFa-I7WnF22JkXFdIoCu-42">
          <mxGeometry relative="1" as="geometry" />
        </mxCell>
        <mxCell id="dFa-I7WnF22JkXFdIoCu-27" value="Shopping Cart" style="shape=umlBoundary;whiteSpace=wrap;html=1;strokeColor=#DDA15E;fontColor=#FEFAE0;fillColor=#BC6C25;rounded=1;" vertex="1" parent="1">
          <mxGeometry x="170" y="680" width="100" height="80" as="geometry" />
        </mxCell>
        <mxCell id="dFa-I7WnF22JkXFdIoCu-31" style="edgeStyle=orthogonalEdgeStyle;rounded=1;orthogonalLoop=1;jettySize=auto;html=1;strokeColor=#DDA15E;fontColor=#FEFAE0;fillColor=#BC6C25;endArrow=none;endFill=0;" edge="1" parent="1" source="dFa-I7WnF22JkXFdIoCu-42" target="dFa-I7WnF22JkXFdIoCu-40">
          <mxGeometry relative="1" as="geometry" />
        </mxCell>
        <mxCell id="dFa-I7WnF22JkXFdIoCu-32" style="edgeStyle=orthogonalEdgeStyle;orthogonalLoop=1;jettySize=auto;html=1;entryX=0.01;entryY=0.488;entryDx=0;entryDy=0;entryPerimeter=0;strokeColor=#DDA15E;fontColor=#FEFAE0;fillColor=#BC6C25;curved=1;endArrow=none;endFill=0;" edge="1" parent="1" source="dFa-I7WnF22JkXFdIoCu-1" target="dFa-I7WnF22JkXFdIoCu-27">
          <mxGeometry relative="1" as="geometry">
            <Array as="points">
              <mxPoint x="120" y="349" />
              <mxPoint x="120" y="719" />
            </Array>
          </mxGeometry>
        </mxCell>
        <mxCell id="dFa-I7WnF22JkXFdIoCu-46" style="edgeStyle=orthogonalEdgeStyle;orthogonalLoop=1;jettySize=auto;html=1;strokeColor=#DDA15E;fontColor=#FEFAE0;fillColor=#BC6C25;endArrow=none;endFill=0;curved=1;" edge="1" parent="1" source="dFa-I7WnF22JkXFdIoCu-34" target="dFa-I7WnF22JkXFdIoCu-45">
          <mxGeometry relative="1" as="geometry" />
        </mxCell>
        <mxCell id="dFa-I7WnF22JkXFdIoCu-34" value="Notifications Controller" style="ellipse;shape=umlControl;whiteSpace=wrap;html=1;strokeColor=#DDA15E;fontColor=#FEFAE0;fillColor=#BC6C25;rounded=1;" vertex="1" parent="1">
          <mxGeometry x="350" y="290" width="85" height="90" as="geometry" />
        </mxCell>
        <mxCell id="dFa-I7WnF22JkXFdIoCu-35" value="Order Page" style="shape=umlBoundary;whiteSpace=wrap;html=1;strokeColor=#DDA15E;fontColor=#FEFAE0;fillColor=#BC6C25;rounded=1;" vertex="1" parent="1">
          <mxGeometry x="170" y="530" width="100" height="80" as="geometry" />
        </mxCell>
        <mxCell id="dFa-I7WnF22JkXFdIoCu-36" style="edgeStyle=orthogonalEdgeStyle;orthogonalLoop=1;jettySize=auto;html=1;entryX=-0.01;entryY=0.488;entryDx=0;entryDy=0;entryPerimeter=0;strokeColor=#DDA15E;fontColor=#FEFAE0;fillColor=#BC6C25;curved=1;endArrow=none;endFill=0;" edge="1" parent="1" source="dFa-I7WnF22JkXFdIoCu-1" target="dFa-I7WnF22JkXFdIoCu-35">
          <mxGeometry relative="1" as="geometry" />
        </mxCell>
        <mxCell id="dFa-I7WnF22JkXFdIoCu-40" value="Cart" style="ellipse;shape=umlEntity;whiteSpace=wrap;html=1;strokeColor=#DDA15E;fontColor=#FEFAE0;fillColor=#BC6C25;rounded=1;" vertex="1" parent="1">
          <mxGeometry x="520" y="675" width="90" height="90" as="geometry" />
        </mxCell>
        <mxCell id="dFa-I7WnF22JkXFdIoCu-41" value="Category" style="ellipse;shape=umlEntity;whiteSpace=wrap;html=1;strokeColor=#DDA15E;fontColor=#FEFAE0;fillColor=#BC6C25;rounded=1;" vertex="1" parent="1">
          <mxGeometry x="520" y="320" width="90" height="90" as="geometry" />
        </mxCell>
        <mxCell id="dFa-I7WnF22JkXFdIoCu-42" value="Shopping Cart Controller" style="ellipse;shape=umlControl;whiteSpace=wrap;html=1;strokeColor=#DDA15E;fontColor=#FEFAE0;fillColor=#BC6C25;rounded=1;" vertex="1" parent="1">
          <mxGeometry x="350" y="675" width="85" height="90" as="geometry" />
        </mxCell>
        <mxCell id="dFa-I7WnF22JkXFdIoCu-43" style="edgeStyle=orthogonalEdgeStyle;orthogonalLoop=1;jettySize=auto;html=1;entryX=0.012;entryY=0.578;entryDx=0;entryDy=0;entryPerimeter=0;strokeColor=#DDA15E;fontColor=#FEFAE0;fillColor=#BC6C25;curved=1;endArrow=none;endFill=0;" edge="1" parent="1" source="dFa-I7WnF22JkXFdIoCu-3" target="dFa-I7WnF22JkXFdIoCu-34">
          <mxGeometry relative="1" as="geometry" />
        </mxCell>
        <mxCell id="dFa-I7WnF22JkXFdIoCu-45" value="Notifications" style="ellipse;shape=umlEntity;whiteSpace=wrap;html=1;strokeColor=#DDA15E;fontColor=#FEFAE0;fillColor=#BC6C25;rounded=1;" vertex="1" parent="1">
          <mxGeometry x="520" y="210" width="90" height="90" as="geometry" />
        </mxCell>
        <mxCell id="dFa-I7WnF22JkXFdIoCu-50" style="edgeStyle=orthogonalEdgeStyle;orthogonalLoop=1;jettySize=auto;html=1;strokeColor=#DDA15E;fontColor=#FEFAE0;fillColor=#BC6C25;endArrow=none;endFill=0;curved=1;" edge="1" parent="1" source="dFa-I7WnF22JkXFdIoCu-47" target="dFa-I7WnF22JkXFdIoCu-49">
          <mxGeometry relative="1" as="geometry" />
        </mxCell>
        <mxCell id="dFa-I7WnF22JkXFdIoCu-47" value="Realtime Chat" style="shape=umlBoundary;whiteSpace=wrap;html=1;strokeColor=#DDA15E;fontColor=#FEFAE0;fillColor=#BC6C25;rounded=1;" vertex="1" parent="1">
          <mxGeometry x="170" y="220" width="100" height="80" as="geometry" />
        </mxCell>
        <mxCell id="dFa-I7WnF22JkXFdIoCu-48" style="edgeStyle=orthogonalEdgeStyle;orthogonalLoop=1;jettySize=auto;html=1;entryX=-0.01;entryY=0.55;entryDx=0;entryDy=0;entryPerimeter=0;strokeColor=#DDA15E;fontColor=#FEFAE0;fillColor=#BC6C25;endArrow=none;endFill=0;curved=1;" edge="1" parent="1" source="dFa-I7WnF22JkXFdIoCu-1" target="dFa-I7WnF22JkXFdIoCu-47">
          <mxGeometry relative="1" as="geometry" />
        </mxCell>
        <mxCell id="dFa-I7WnF22JkXFdIoCu-52" style="edgeStyle=orthogonalEdgeStyle;orthogonalLoop=1;jettySize=auto;html=1;strokeColor=#DDA15E;fontColor=#FEFAE0;fillColor=#BC6C25;curved=1;endArrow=none;endFill=0;" edge="1" parent="1" source="dFa-I7WnF22JkXFdIoCu-49" target="dFa-I7WnF22JkXFdIoCu-51">
          <mxGeometry relative="1" as="geometry" />
        </mxCell>
        <mxCell id="dFa-I7WnF22JkXFdIoCu-53" style="edgeStyle=orthogonalEdgeStyle;orthogonalLoop=1;jettySize=auto;html=1;entryX=1;entryY=0.5;entryDx=0;entryDy=0;strokeColor=#DDA15E;fontColor=#FEFAE0;fillColor=#BC6C25;curved=1;endArrow=none;endFill=0;" edge="1" parent="1" source="dFa-I7WnF22JkXFdIoCu-49" target="dFa-I7WnF22JkXFdIoCu-7">
          <mxGeometry relative="1" as="geometry">
            <Array as="points">
              <mxPoint x="393" y="79" />
              <mxPoint x="720" y="79" />
              <mxPoint x="720" y="850" />
            </Array>
          </mxGeometry>
        </mxCell>
        <mxCell id="dFa-I7WnF22JkXFdIoCu-55" style="edgeStyle=orthogonalEdgeStyle;orthogonalLoop=1;jettySize=auto;html=1;strokeColor=#DDA15E;fontColor=#FEFAE0;fillColor=#BC6C25;curved=1;endArrow=none;endFill=0;" edge="1" parent="1" source="dFa-I7WnF22JkXFdIoCu-49" target="dFa-I7WnF22JkXFdIoCu-17">
          <mxGeometry relative="1" as="geometry">
            <Array as="points">
              <mxPoint x="393" y="60" />
              <mxPoint x="760" y="60" />
              <mxPoint x="760" y="436" />
            </Array>
          </mxGeometry>
        </mxCell>
        <mxCell id="dFa-I7WnF22JkXFdIoCu-49" value="Chat Controller" style="ellipse;shape=umlControl;whiteSpace=wrap;html=1;strokeColor=#DDA15E;fontColor=#FEFAE0;fillColor=#BC6C25;rounded=1;" vertex="1" parent="1">
          <mxGeometry x="350" y="179" width="85" height="90" as="geometry" />
        </mxCell>
        <mxCell id="dFa-I7WnF22JkXFdIoCu-51" value="Chat" style="ellipse;shape=umlEntity;whiteSpace=wrap;html=1;strokeColor=#DDA15E;fontColor=#FEFAE0;fillColor=#BC6C25;rounded=1;" vertex="1" parent="1">
          <mxGeometry x="520" y="99" width="90" height="90" as="geometry" />
        </mxCell>
        <mxCell id="dFa-I7WnF22JkXFdIoCu-56" value="&lt;h1&gt;Designed By:&lt;/h1&gt;&lt;p&gt;Ahmed Trabelsi&lt;/p&gt;" style="text;html=1;strokeColor=none;fillColor=none;spacing=5;spacingTop=-20;whiteSpace=wrap;overflow=hidden;rounded=0;fontColor=#FEFAE0;" vertex="1" parent="1">
          <mxGeometry x="640" y="1000" width="170" height="70" as="geometry" />
        </mxCell>
        <mxCell id="dFa-I7WnF22JkXFdIoCu-57" value="&lt;font style=&quot;font-size: 16px;&quot;&gt;Participating Class Diagram (ShopSwap)&lt;/font&gt;" style="swimlane;whiteSpace=wrap;html=1;rounded=1;strokeColor=#DDA15E;fontColor=#FEFAE0;fillColor=#BC6C25;startSize=30;" vertex="1" parent="1">
          <mxGeometry width="850" height="1100" as="geometry" />
        </mxCell>
        <mxCell id="dFa-I7WnF22JkXFdIoCu-58" value="Category Controller" style="ellipse;shape=umlControl;whiteSpace=wrap;html=1;strokeColor=#DDA15E;fontColor=#FEFAE0;fillColor=#BC6C25;rounded=1;" vertex="1" parent="dFa-I7WnF22JkXFdIoCu-57">
          <mxGeometry x="350" y="910" width="85" height="90" as="geometry" />
        </mxCell>
        <mxCell id="dFa-I7WnF22JkXFdIoCu-60" style="edgeStyle=orthogonalEdgeStyle;orthogonalLoop=1;jettySize=auto;html=1;strokeColor=#DDA15E;fontColor=#FEFAE0;fillColor=#BC6C25;endArrow=none;endFill=0;curved=1;" edge="1" parent="dFa-I7WnF22JkXFdIoCu-57" source="dFa-I7WnF22JkXFdIoCu-59" target="dFa-I7WnF22JkXFdIoCu-58">
          <mxGeometry relative="1" as="geometry" />
        </mxCell>
        <mxCell id="dFa-I7WnF22JkXFdIoCu-59" value="Categories" style="shape=umlBoundary;whiteSpace=wrap;html=1;strokeColor=#DDA15E;fontColor=#FEFAE0;fillColor=#BC6C25;rounded=1;" vertex="1" parent="dFa-I7WnF22JkXFdIoCu-57">
          <mxGeometry x="170" y="915" width="100" height="80" as="geometry" />
        </mxCell>
        <mxCell id="dFa-I7WnF22JkXFdIoCu-61" style="edgeStyle=orthogonalEdgeStyle;orthogonalLoop=1;jettySize=auto;html=1;exitX=0.5;exitY=0.5;exitDx=0;exitDy=0;exitPerimeter=0;entryX=0.01;entryY=0.488;entryDx=0;entryDy=0;entryPerimeter=0;strokeColor=#DDA15E;fontColor=#FEFAE0;fillColor=#BC6C25;curved=1;endArrow=none;endFill=0;" edge="1" parent="1" source="dFa-I7WnF22JkXFdIoCu-10" target="dFa-I7WnF22JkXFdIoCu-59">
          <mxGeometry relative="1" as="geometry">
            <Array as="points">
              <mxPoint x="20" y="639" />
              <mxPoint x="20" y="954" />
            </Array>
          </mxGeometry>
        </mxCell>
        <mxCell id="dFa-I7WnF22JkXFdIoCu-62" style="edgeStyle=orthogonalEdgeStyle;orthogonalLoop=1;jettySize=auto;html=1;strokeColor=#DDA15E;fontColor=#FEFAE0;fillColor=#BC6C25;endArrow=none;endFill=0;curved=1;" edge="1" parent="1" source="dFa-I7WnF22JkXFdIoCu-58" target="dFa-I7WnF22JkXFdIoCu-41">
          <mxGeometry relative="1" as="geometry">
            <Array as="points">
              <mxPoint x="760" y="955" />
              <mxPoint x="760" y="365" />
            </Array>
          </mxGeometry>
        </mxCell>
      </root>
    </mxGraphModel>
  </diagram>
</mxfile>
